<?xml version="1.0" encoding="UTF-8" standalone="no"?>
<svg
   xmlns:dc="http://purl.org/dc/elements/1.1/"
   xmlns:cc="http://creativecommons.org/ns#"
   xmlns:rdf="http://www.w3.org/1999/02/22-rdf-syntax-ns#"
   xmlns:svg="http://www.w3.org/2000/svg"
   xmlns="http://www.w3.org/2000/svg"
   id="svg6"
   version="1.1"
   viewBox="0 0 24 24"
   height="24"
   width="24">
  <metadata
     id="metadata12">
    <rdf:RDF>
      <cc:Work
         rdf:about="">
        <dc:format>image/svg+xml</dc:format>
        <dc:type
           rdf:resource="http://purl.org/dc/dcmitype/StillImage" />
        <dc:title></dc:title>
      </cc:Work>
    </rdf:RDF>
  </metadata>
  <defs
     id="defs10" />
  <path
     id="path2"
     fill="none"
     d="M0 .5h24v24H0z" />
  <path
     id="path9"
     d="M 11,7.9999998 V 13 l 4.25,2.52 0.77,-1.28 -3.52,-2.09 V 7.9999998 Z M 21,10 V 2.9999998 l -2.64,2.64 c -1.62,-1.63 -3.87,-2.64 -6.36,-2.64 -4.97,0 -9,4.03 -9,9.0000002 0,4.97 4.03,9 9,9 4.97,0 9,-4.03 9,-9 h -2 c 0,3.86 -3.14,7 -7,7 -3.86,0 -7,-3.14 -7,-7 0,-3.8600002 3.14,-7.0000002 7,-7.0000002 1.93,0 3.68,0.79 4.95,2.05 L 14,10 Z" />
</svg>
